<?xml version="1.0" encoding="utf-8" standalone="no"?>
<!DOCTYPE svg PUBLIC "-//W3C//DTD SVG 1.1//EN"
  "http://www.w3.org/Graphics/SVG/1.1/DTD/svg11.dtd">
<svg xmlns:xlink="http://www.w3.org/1999/xlink" width="864pt" height="720pt" viewBox="0 0 864 720" xmlns="http://www.w3.org/2000/svg" version="1.1">
 <metadata>
  <rdf:RDF xmlns:dc="http://purl.org/dc/elements/1.1/" xmlns:cc="http://creativecommons.org/ns#" xmlns:rdf="http://www.w3.org/1999/02/22-rdf-syntax-ns#">
   <cc:Work>
    <dc:type rdf:resource="http://purl.org/dc/dcmitype/StillImage"/>
    <dc:date>2025-10-22T12:08:55.293323</dc:date>
    <dc:format>image/svg+xml</dc:format>
    <dc:creator>
     <cc:Agent>
      <dc:title>Matplotlib v3.10.1, https://matplotlib.org/</dc:title>
     </cc:Agent>
    </dc:creator>
   </cc:Work>
  </rdf:RDF>
 </metadata>
 <defs>
  <style type="text/css">*{stroke-linejoin: round; stroke-linecap: butt}</style>
 </defs>
 <g id="figure_1">
  <g id="patch_1">
   <path d="M 0 720 
L 864 720 
L 864 0 
L 0 0 
z
" style="fill: #ffffff"/>
  </g>
  <g id="axes_1">
   <g id="LineCollection_1">
    <path d="M 432 367.32 
L 344.975199 244.974235 
" clip-path="url(#p6fc18c1653)" style="fill: none; stroke: #808080; stroke-width: 4.04"/>
    <path d="M 432 367.32 
L 733.462713 508.592778 
" clip-path="url(#p6fc18c1653)" style="fill: none; stroke: #ffa500; stroke-width: 3.01"/>
    <path d="M 432 367.32 
L 375.073907 500.822823 
" clip-path="url(#p6fc18c1653)" style="fill: none; stroke: #ffa500; stroke-width: 2.16"/>
    <path d="M 432 367.32 
L 602.904286 394.056028 
" clip-path="url(#p6fc18c1653)" style="fill: none; stroke: #ffa500; stroke-width: 3.1"/>
    <path d="M 344.975199 244.974235 
L 83.900826 367.320025 
" clip-path="url(#p6fc18c1653)" style="fill: none; stroke: #ffa500; stroke-width: 2.89"/>
    <path d="M 95.762012 440.448155 
L 130.537287 508.592778 
" clip-path="url(#p6fc18c1653)" style="fill: none; stroke: #ffa500; stroke-width: 2.8"/>
    <path d="M 185.856736 567.10984 
L 257.950444 612.011555 
" clip-path="url(#p6fc18c1653)" style="fill: none; stroke: #ffa500; stroke-width: 5.93"/>
    <path d="M 341.905323 640.237957 
L 432.000004 649.865455 
" clip-path="url(#p6fc18c1653)" style="fill: none; stroke: #ffa500; stroke-width: 2.05"/>
    <path d="M 522.094677 640.237957 
L 606.049556 612.011555 
" clip-path="url(#p6fc18c1653)" style="fill: none; stroke: #808080; stroke-width: 5.17"/>
    <path d="M 277.29855 302.585103 
L 258.738528 380.748845 
" clip-path="url(#p6fc18c1653)" style="fill: none; stroke: #ffa500; stroke-width: 5.63"/>
    <path d="M 277.29855 302.585103 
L 295.187773 454.649 
" clip-path="url(#p6fc18c1653)" style="fill: none; stroke: #ffa500; stroke-width: 1.08"/>
    <path d="M 258.738528 380.748845 
L 375.073907 500.822823 
" clip-path="url(#p6fc18c1653)" style="fill: none; stroke: #ffa500; stroke-width: 4.13"/>
    <path d="M 295.187773 454.649 
L 733.462713 226.04726 
" clip-path="url(#p6fc18c1653)" style="fill: none; stroke: #ffa500; stroke-width: 2.6"/>
    <path d="M 295.187773 454.649 
L 602.904286 394.056028 
" clip-path="url(#p6fc18c1653)" style="fill: none; stroke: #ffa500; stroke-width: 5.88"/>
    <path d="M 768.237988 440.448085 
L 780.099174 367.319951 
" clip-path="url(#p6fc18c1653)" style="fill: none; stroke: #ffa500; stroke-width: 2.26"/>
    <path d="M 375.073907 500.822823 
L 473.033747 504.610474 
" clip-path="url(#p6fc18c1653)" style="fill: none; stroke: #ffa500; stroke-width: 3.41"/>
    <path d="M 473.033747 504.610474 
L 557.96565 464.809315 
" clip-path="url(#p6fc18c1653)" style="fill: none; stroke: #ffa500; stroke-width: 3.49"/>
    <path d="M 557.96565 464.809315 
L 768.237988 294.19182 
" clip-path="url(#p6fc18c1653)" style="fill: none; stroke: #ffa500; stroke-width: 3.01"/>
    <path d="M 678.14328 167.530198 
L 606.049447 122.628395 
" clip-path="url(#p6fc18c1653)" style="fill: none; stroke: #808080; stroke-width: 5.8"/>
    <path d="M 522.094724 94.402043 
L 431.999882 84.774545 
" clip-path="url(#p6fc18c1653)" style="fill: none; stroke: #808080; stroke-width: 5.94"/>
    <path d="M 341.90537 94.402043 
L 593.582057 314.814248 
" clip-path="url(#p6fc18c1653)" style="fill: none; stroke: #ffa500; stroke-width: 1.58"/>
    <path d="M 593.582057 314.814248 
L 257.950335 122.628496 
" clip-path="url(#p6fc18c1653)" style="fill: none; stroke: #ffa500; stroke-width: 5.91"/>
    <path d="M 532.958644 252.242622 
L 532.958644 252.242622 
" clip-path="url(#p6fc18c1653)" style="fill: none; stroke: #ffa500; stroke-width: 2.5"/>
    <path d="M 532.958644 252.242622 
L 185.856782 167.530135 
" clip-path="url(#p6fc18c1653)" style="fill: none; stroke: #ffa500; stroke-width: 2.73"/>
    <path d="M 130.537256 226.047298 
L 440.28162 226.207292 
" clip-path="url(#p6fc18c1653)" style="fill: none; stroke: #ffa500; stroke-width: 3.46"/>
    <path d="M 440.28162 226.207292 
L 95.76195 294.192009 
" clip-path="url(#p6fc18c1653)" style="fill: none; stroke: #ffa500; stroke-width: 1.14"/>
   </g>
   <g id="patch_2">
    <path d="M 532.958644 195.733531 
C 567.768561 195.733531 567.768561 252.242622 532.958644 252.242622 
C 498.148726 252.242622 498.148726 195.733531 532.958644 195.733531 
" clip-path="url(#p6fc18c1653)" style="fill: none; stroke: #ffa500; stroke-width: 2.5; stroke-linecap: round"/>
   </g>
   <g id="LineCollection_2">
    <path d="M 432 367.32 
L 678.143358 567.109739 
" clip-path="url(#p6fc18c1653)" style="fill: none; stroke-dasharray: 3.7,1.6; stroke-dashoffset: 0; stroke: #ff0000"/>
   </g>
   <g id="PathCollection_1">
    <defs>
     <path id="C0_0_0101a02638" d="M 0 12.247449 
C 3.248061 12.247449 6.363528 10.95698 8.660254 8.660254 
C 10.95698 6.363528 12.247449 3.248061 12.247449 -0 
C 12.247449 -3.248061 10.95698 -6.363528 8.660254 -8.660254 
C 6.363528 -10.95698 3.248061 -12.247449 0 -12.247449 
C -3.248061 -12.247449 -6.363528 -10.95698 -8.660254 -8.660254 
C -10.95698 -6.363528 -12.247449 -3.248061 -12.247449 0 
C -12.247449 3.248061 -10.95698 6.363528 -8.660254 8.660254 
C -6.363528 10.95698 -3.248061 12.247449 0 12.247449 
z
"/>
    </defs>
    <g clip-path="url(#p6fc18c1653)">
     <use xlink:href="#C0_0_0101a02638" x="432" y="367.32" style="fill: #ef4444; stroke: #000000"/>
    </g>
    <g clip-path="url(#p6fc18c1653)">
     <use xlink:href="#C0_0_0101a02638" x="344.975199" y="244.974235" style="fill: #ef4444; stroke: #000000"/>
    </g>
    <g clip-path="url(#p6fc18c1653)">
     <use xlink:href="#C0_0_0101a02638" x="83.900826" y="367.320025" style="fill: #ef4444; stroke: #000000"/>
    </g>
    <g clip-path="url(#p6fc18c1653)">
     <use xlink:href="#C0_0_0101a02638" x="95.762012" y="440.448155" style="fill: #00b5ff; stroke: #000000"/>
    </g>
    <g clip-path="url(#p6fc18c1653)">
     <use xlink:href="#C0_0_0101a02638" x="130.537287" y="508.592778" style="fill: #ef4444; stroke: #000000"/>
    </g>
    <g clip-path="url(#p6fc18c1653)">
     <use xlink:href="#C0_0_0101a02638" x="185.856736" y="567.10984" style="fill: #00b5ff; stroke: #000000"/>
    </g>
    <g clip-path="url(#p6fc18c1653)">
     <use xlink:href="#C0_0_0101a02638" x="257.950444" y="612.011555" style="fill: #1d4ed8; stroke: #000000"/>
    </g>
    <g clip-path="url(#p6fc18c1653)">
     <use xlink:href="#C0_0_0101a02638" x="341.905323" y="640.237957" style="fill: #00b5ff; stroke: #000000"/>
    </g>
    <g clip-path="url(#p6fc18c1653)">
     <use xlink:href="#C0_0_0101a02638" x="432.000004" y="649.865455" style="fill: #00b5ff; stroke: #000000"/>
    </g>
    <g clip-path="url(#p6fc18c1653)">
     <use xlink:href="#C0_0_0101a02638" x="522.094677" y="640.237957" style="fill: #16a34a; stroke: #000000"/>
    </g>
    <g clip-path="url(#p6fc18c1653)">
     <use xlink:href="#C0_0_0101a02638" x="606.049556" y="612.011555" style="fill: #16a34a; stroke: #000000"/>
    </g>
    <g clip-path="url(#p6fc18c1653)">
     <use xlink:href="#C0_0_0101a02638" x="277.29855" y="302.585103" style="fill: #16a34a; stroke: #000000"/>
    </g>
    <g clip-path="url(#p6fc18c1653)">
     <use xlink:href="#C0_0_0101a02638" x="258.738528" y="380.748845" style="fill: #facc15; stroke: #000000"/>
    </g>
    <g clip-path="url(#p6fc18c1653)">
     <use xlink:href="#C0_0_0101a02638" x="295.187773" y="454.649" style="fill: #065f46; stroke: #000000"/>
    </g>
    <g clip-path="url(#p6fc18c1653)">
     <use xlink:href="#C0_0_0101a02638" x="678.143358" y="567.109739" style="fill: #16a34a; stroke: #000000"/>
    </g>
    <g clip-path="url(#p6fc18c1653)">
     <use xlink:href="#C0_0_0101a02638" x="733.462713" y="508.592778" style="fill: #16a34a; stroke: #000000"/>
    </g>
    <g clip-path="url(#p6fc18c1653)">
     <use xlink:href="#C0_0_0101a02638" x="768.237988" y="440.448085" style="fill: #facc15; stroke: #000000"/>
    </g>
    <g clip-path="url(#p6fc18c1653)">
     <use xlink:href="#C0_0_0101a02638" x="780.099174" y="367.319951" style="fill: #ef4444; stroke: #000000"/>
    </g>
    <g clip-path="url(#p6fc18c1653)">
     <use xlink:href="#C0_0_0101a02638" x="375.073907" y="500.822823" style="fill: #065f46; stroke: #000000"/>
    </g>
    <g clip-path="url(#p6fc18c1653)">
     <use xlink:href="#C0_0_0101a02638" x="473.033747" y="504.610474" style="fill: #facc15; stroke: #000000"/>
    </g>
    <g clip-path="url(#p6fc18c1653)">
     <use xlink:href="#C0_0_0101a02638" x="557.96565" y="464.809315" style="fill: #facc15; stroke: #000000"/>
    </g>
    <g clip-path="url(#p6fc18c1653)">
     <use xlink:href="#C0_0_0101a02638" x="768.237988" y="294.19182" style="fill: #065f46; stroke: #000000"/>
    </g>
    <g clip-path="url(#p6fc18c1653)">
     <use xlink:href="#C0_0_0101a02638" x="733.462713" y="226.04726" style="fill: #065f46; stroke: #000000"/>
    </g>
    <g clip-path="url(#p6fc18c1653)">
     <use xlink:href="#C0_0_0101a02638" x="602.904286" y="394.056028" style="fill: #1d4ed8; stroke: #000000"/>
    </g>
    <g clip-path="url(#p6fc18c1653)">
     <use xlink:href="#C0_0_0101a02638" x="678.14328" y="167.530198" style="fill: #065f46; stroke: #000000"/>
    </g>
    <g clip-path="url(#p6fc18c1653)">
     <use xlink:href="#C0_0_0101a02638" x="606.049447" y="122.628395" style="fill: #1d4ed8; stroke: #000000"/>
    </g>
    <g clip-path="url(#p6fc18c1653)">
     <use xlink:href="#C0_0_0101a02638" x="522.094724" y="94.402043" style="fill: #1d4ed8; stroke: #000000"/>
    </g>
    <g clip-path="url(#p6fc18c1653)">
     <use xlink:href="#C0_0_0101a02638" x="431.999882" y="84.774545" style="fill: #1d4ed8; stroke: #000000"/>
    </g>
    <g clip-path="url(#p6fc18c1653)">
     <use xlink:href="#C0_0_0101a02638" x="341.90537" y="94.402043" style="fill: #1d4ed8; stroke: #000000"/>
    </g>
    <g clip-path="url(#p6fc18c1653)">
     <use xlink:href="#C0_0_0101a02638" x="593.582057" y="314.814248" style="fill: #fb923c; stroke: #000000"/>
    </g>
    <g clip-path="url(#p6fc18c1653)">
     <use xlink:href="#C0_0_0101a02638" x="257.950335" y="122.628496" style="fill: #ef4444; stroke: #000000"/>
    </g>
    <g clip-path="url(#p6fc18c1653)">
     <use xlink:href="#C0_0_0101a02638" x="532.958644" y="252.242622" style="fill: #fb923c; stroke: #000000"/>
    </g>
    <g clip-path="url(#p6fc18c1653)">
     <use xlink:href="#C0_0_0101a02638" x="185.856782" y="167.530135" style="fill: #ef4444; stroke: #000000"/>
    </g>
    <g clip-path="url(#p6fc18c1653)">
     <use xlink:href="#C0_0_0101a02638" x="130.537256" y="226.047298" style="fill: #fb923c; stroke: #000000"/>
    </g>
    <g clip-path="url(#p6fc18c1653)">
     <use xlink:href="#C0_0_0101a02638" x="440.28162" y="226.207292" style="fill: #ef4444; stroke: #000000"/>
    </g>
    <g clip-path="url(#p6fc18c1653)">
     <use xlink:href="#C0_0_0101a02638" x="95.76195" y="294.192009" style="fill: #fb923c; stroke: #000000"/>
    </g>
   </g>
   <g id="line2d_1"/>
   <g id="line2d_2"/>
   <g id="line2d_3"/>
   <g id="line2d_4"/>
   <g id="text_1">
    <g clip-path="url(#p6fc18c1653)">
     <!-- 1004 -->
     <g transform="translate(419.475938 369.803437) scale(0.09 -0.09)">
      <defs>
       <path id="DejaVuSans-Bold-31" d="M 750 831 
L 1813 831 
L 1813 3847 
L 722 3622 
L 722 4441 
L 1806 4666 
L 2950 4666 
L 2950 831 
L 4013 831 
L 4013 0 
L 750 0 
L 750 831 
z
" transform="scale(0.015625)"/>
       <path id="DejaVuSans-Bold-30" d="M 2944 2338 
Q 2944 3213 2780 3570 
Q 2616 3928 2228 3928 
Q 1841 3928 1675 3570 
Q 1509 3213 1509 2338 
Q 1509 1453 1675 1090 
Q 1841 728 2228 728 
Q 2613 728 2778 1090 
Q 2944 1453 2944 2338 
z
M 4147 2328 
Q 4147 1169 3647 539 
Q 3147 -91 2228 -91 
Q 1306 -91 806 539 
Q 306 1169 306 2328 
Q 306 3491 806 4120 
Q 1306 4750 2228 4750 
Q 3147 4750 3647 4120 
Q 4147 3491 4147 2328 
z
" transform="scale(0.015625)"/>
       <path id="DejaVuSans-Bold-34" d="M 2356 3675 
L 1038 1722 
L 2356 1722 
L 2356 3675 
z
M 2156 4666 
L 3494 4666 
L 3494 1722 
L 4159 1722 
L 4159 850 
L 3494 850 
L 3494 0 
L 2356 0 
L 2356 850 
L 288 850 
L 288 1881 
L 2156 4666 
z
" transform="scale(0.015625)"/>
      </defs>
      <use xlink:href="#DejaVuSans-Bold-31"/>
      <use xlink:href="#DejaVuSans-Bold-30" transform="translate(69.580078 0)"/>
      <use xlink:href="#DejaVuSans-Bold-30" transform="translate(139.160156 0)"/>
      <use xlink:href="#DejaVuSans-Bold-34" transform="translate(208.740234 0)"/>
     </g>
    </g>
   </g>
   <g id="text_2">
    <g clip-path="url(#p6fc18c1653)">
     <!-- 1008 -->
     <g transform="translate(332.451136 247.457673) scale(0.09 -0.09)">
      <defs>
       <path id="DejaVuSans-Bold-38" d="M 2228 2088 
Q 1891 2088 1709 1903 
Q 1528 1719 1528 1375 
Q 1528 1031 1709 848 
Q 1891 666 2228 666 
Q 2563 666 2741 848 
Q 2919 1031 2919 1375 
Q 2919 1722 2741 1905 
Q 2563 2088 2228 2088 
z
M 1350 2484 
Q 925 2613 709 2878 
Q 494 3144 494 3541 
Q 494 4131 934 4440 
Q 1375 4750 2228 4750 
Q 3075 4750 3515 4442 
Q 3956 4134 3956 3541 
Q 3956 3144 3739 2878 
Q 3522 2613 3097 2484 
Q 3572 2353 3814 2058 
Q 4056 1763 4056 1313 
Q 4056 619 3595 264 
Q 3134 -91 2228 -91 
Q 1319 -91 855 264 
Q 391 619 391 1313 
Q 391 1763 633 2058 
Q 875 2353 1350 2484 
z
M 1631 3419 
Q 1631 3141 1786 2991 
Q 1941 2841 2228 2841 
Q 2509 2841 2662 2991 
Q 2816 3141 2816 3419 
Q 2816 3697 2662 3845 
Q 2509 3994 2228 3994 
Q 1941 3994 1786 3844 
Q 1631 3694 1631 3419 
z
" transform="scale(0.015625)"/>
      </defs>
      <use xlink:href="#DejaVuSans-Bold-31"/>
      <use xlink:href="#DejaVuSans-Bold-30" transform="translate(69.580078 0)"/>
      <use xlink:href="#DejaVuSans-Bold-30" transform="translate(139.160156 0)"/>
      <use xlink:href="#DejaVuSans-Bold-38" transform="translate(208.740234 0)"/>
     </g>
    </g>
   </g>
   <g id="text_3">
    <g clip-path="url(#p6fc18c1653)">
     <!-- 1006 -->
     <g transform="translate(71.376764 369.803462) scale(0.09 -0.09)">
      <defs>
       <path id="DejaVuSans-Bold-36" d="M 2316 2303 
Q 2000 2303 1842 2098 
Q 1684 1894 1684 1484 
Q 1684 1075 1842 870 
Q 2000 666 2316 666 
Q 2634 666 2792 870 
Q 2950 1075 2950 1484 
Q 2950 1894 2792 2098 
Q 2634 2303 2316 2303 
z
M 3803 4544 
L 3803 3681 
Q 3506 3822 3243 3889 
Q 2981 3956 2731 3956 
Q 2194 3956 1894 3657 
Q 1594 3359 1544 2772 
Q 1750 2925 1990 3001 
Q 2231 3078 2516 3078 
Q 3231 3078 3670 2659 
Q 4109 2241 4109 1563 
Q 4109 813 3618 361 
Q 3128 -91 2303 -91 
Q 1394 -91 895 523 
Q 397 1138 397 2266 
Q 397 3422 980 4083 
Q 1563 4744 2578 4744 
Q 2900 4744 3203 4694 
Q 3506 4644 3803 4544 
z
" transform="scale(0.015625)"/>
      </defs>
      <use xlink:href="#DejaVuSans-Bold-31"/>
      <use xlink:href="#DejaVuSans-Bold-30" transform="translate(69.580078 0)"/>
      <use xlink:href="#DejaVuSans-Bold-30" transform="translate(139.160156 0)"/>
      <use xlink:href="#DejaVuSans-Bold-36" transform="translate(208.740234 0)"/>
     </g>
    </g>
   </g>
   <g id="text_4">
    <g clip-path="url(#p6fc18c1653)">
     <!-- 741 -->
     <g transform="translate(86.368965 442.931592) scale(0.09 -0.09)">
      <defs>
       <path id="DejaVuSans-Bold-37" d="M 428 4666 
L 3944 4666 
L 3944 3988 
L 2125 0 
L 953 0 
L 2675 3781 
L 428 3781 
L 428 4666 
z
" transform="scale(0.015625)"/>
      </defs>
      <use xlink:href="#DejaVuSans-Bold-37"/>
      <use xlink:href="#DejaVuSans-Bold-34" transform="translate(69.580078 0)"/>
      <use xlink:href="#DejaVuSans-Bold-31" transform="translate(139.160156 0)"/>
     </g>
    </g>
   </g>
   <g id="text_5">
    <g clip-path="url(#p6fc18c1653)">
     <!-- 1005 -->
     <g transform="translate(118.013225 511.076215) scale(0.09 -0.09)">
      <defs>
       <path id="DejaVuSans-Bold-35" d="M 678 4666 
L 3669 4666 
L 3669 3781 
L 1638 3781 
L 1638 3059 
Q 1775 3097 1914 3117 
Q 2053 3138 2203 3138 
Q 3056 3138 3531 2711 
Q 4006 2284 4006 1522 
Q 4006 766 3489 337 
Q 2972 -91 2053 -91 
Q 1656 -91 1267 -14 
Q 878 63 494 219 
L 494 1166 
Q 875 947 1217 837 
Q 1559 728 1863 728 
Q 2300 728 2551 942 
Q 2803 1156 2803 1522 
Q 2803 1891 2551 2103 
Q 2300 2316 1863 2316 
Q 1603 2316 1309 2248 
Q 1016 2181 678 2041 
L 678 4666 
z
" transform="scale(0.015625)"/>
      </defs>
      <use xlink:href="#DejaVuSans-Bold-31"/>
      <use xlink:href="#DejaVuSans-Bold-30" transform="translate(69.580078 0)"/>
      <use xlink:href="#DejaVuSans-Bold-30" transform="translate(139.160156 0)"/>
      <use xlink:href="#DejaVuSans-Bold-35" transform="translate(208.740234 0)"/>
     </g>
    </g>
   </g>
   <g id="text_6">
    <g clip-path="url(#p6fc18c1653)">
     <!-- 745 -->
     <g transform="translate(176.463689 569.593277) scale(0.09 -0.09)">
      <use xlink:href="#DejaVuSans-Bold-37"/>
      <use xlink:href="#DejaVuSans-Bold-34" transform="translate(69.580078 0)"/>
      <use xlink:href="#DejaVuSans-Bold-35" transform="translate(139.160156 0)"/>
     </g>
    </g>
   </g>
   <g id="text_7">
    <g clip-path="url(#p6fc18c1653)">
     <!-- 839 -->
     <g transform="translate(248.557397 614.494992) scale(0.09 -0.09)">
      <defs>
       <path id="DejaVuSans-Bold-33" d="M 2981 2516 
Q 3453 2394 3698 2092 
Q 3944 1791 3944 1325 
Q 3944 631 3412 270 
Q 2881 -91 1863 -91 
Q 1503 -91 1142 -33 
Q 781 25 428 141 
L 428 1069 
Q 766 900 1098 814 
Q 1431 728 1753 728 
Q 2231 728 2486 893 
Q 2741 1059 2741 1369 
Q 2741 1688 2480 1852 
Q 2219 2016 1709 2016 
L 1228 2016 
L 1228 2791 
L 1734 2791 
Q 2188 2791 2409 2933 
Q 2631 3075 2631 3366 
Q 2631 3634 2415 3781 
Q 2200 3928 1806 3928 
Q 1516 3928 1219 3862 
Q 922 3797 628 3669 
L 628 4550 
Q 984 4650 1334 4700 
Q 1684 4750 2022 4750 
Q 2931 4750 3382 4451 
Q 3834 4153 3834 3553 
Q 3834 3144 3618 2883 
Q 3403 2622 2981 2516 
z
" transform="scale(0.015625)"/>
       <path id="DejaVuSans-Bold-39" d="M 641 103 
L 641 966 
Q 928 831 1190 764 
Q 1453 697 1709 697 
Q 2247 697 2547 995 
Q 2847 1294 2900 1881 
Q 2688 1725 2447 1647 
Q 2206 1569 1925 1569 
Q 1209 1569 770 1986 
Q 331 2403 331 3084 
Q 331 3838 820 4291 
Q 1309 4744 2131 4744 
Q 3044 4744 3544 4128 
Q 4044 3513 4044 2388 
Q 4044 1231 3459 570 
Q 2875 -91 1856 -91 
Q 1528 -91 1228 -42 
Q 928 6 641 103 
z
M 2125 2350 
Q 2441 2350 2600 2554 
Q 2759 2759 2759 3169 
Q 2759 3575 2600 3781 
Q 2441 3988 2125 3988 
Q 1809 3988 1650 3781 
Q 1491 3575 1491 3169 
Q 1491 2759 1650 2554 
Q 1809 2350 2125 2350 
z
" transform="scale(0.015625)"/>
      </defs>
      <use xlink:href="#DejaVuSans-Bold-38"/>
      <use xlink:href="#DejaVuSans-Bold-33" transform="translate(69.580078 0)"/>
      <use xlink:href="#DejaVuSans-Bold-39" transform="translate(139.160156 0)"/>
     </g>
    </g>
   </g>
   <g id="text_8">
    <g clip-path="url(#p6fc18c1653)">
     <!-- 752 -->
     <g transform="translate(332.512276 642.721394) scale(0.09 -0.09)">
      <defs>
       <path id="DejaVuSans-Bold-32" d="M 1844 884 
L 3897 884 
L 3897 0 
L 506 0 
L 506 884 
L 2209 2388 
Q 2438 2594 2547 2791 
Q 2656 2988 2656 3200 
Q 2656 3528 2436 3728 
Q 2216 3928 1850 3928 
Q 1569 3928 1234 3808 
Q 900 3688 519 3450 
L 519 4475 
Q 925 4609 1322 4679 
Q 1719 4750 2100 4750 
Q 2938 4750 3402 4381 
Q 3866 4013 3866 3353 
Q 3866 2972 3669 2642 
Q 3472 2313 2841 1759 
L 1844 884 
z
" transform="scale(0.015625)"/>
      </defs>
      <use xlink:href="#DejaVuSans-Bold-37"/>
      <use xlink:href="#DejaVuSans-Bold-35" transform="translate(69.580078 0)"/>
      <use xlink:href="#DejaVuSans-Bold-32" transform="translate(139.160156 0)"/>
     </g>
    </g>
   </g>
   <g id="text_9">
    <g clip-path="url(#p6fc18c1653)">
     <!-- 756 -->
     <g transform="translate(422.606957 652.348892) scale(0.09 -0.09)">
      <use xlink:href="#DejaVuSans-Bold-37"/>
      <use xlink:href="#DejaVuSans-Bold-35" transform="translate(69.580078 0)"/>
      <use xlink:href="#DejaVuSans-Bold-36" transform="translate(139.160156 0)"/>
     </g>
    </g>
   </g>
   <g id="text_10">
    <g clip-path="url(#p6fc18c1653)">
     <!-- 776 -->
     <g transform="translate(512.70163 642.721394) scale(0.09 -0.09)">
      <use xlink:href="#DejaVuSans-Bold-37"/>
      <use xlink:href="#DejaVuSans-Bold-37" transform="translate(69.580078 0)"/>
      <use xlink:href="#DejaVuSans-Bold-36" transform="translate(139.160156 0)"/>
     </g>
    </g>
   </g>
   <g id="text_11">
    <g clip-path="url(#p6fc18c1653)">
     <!-- 780 -->
     <g transform="translate(596.656509 614.494992) scale(0.09 -0.09)">
      <use xlink:href="#DejaVuSans-Bold-37"/>
      <use xlink:href="#DejaVuSans-Bold-38" transform="translate(69.580078 0)"/>
      <use xlink:href="#DejaVuSans-Bold-30" transform="translate(139.160156 0)"/>
     </g>
    </g>
   </g>
   <g id="text_12">
    <g clip-path="url(#p6fc18c1653)">
     <!-- 782 -->
     <g transform="translate(267.905503 305.06854) scale(0.09 -0.09)">
      <use xlink:href="#DejaVuSans-Bold-37"/>
      <use xlink:href="#DejaVuSans-Bold-38" transform="translate(69.580078 0)"/>
      <use xlink:href="#DejaVuSans-Bold-32" transform="translate(139.160156 0)"/>
     </g>
    </g>
   </g>
   <g id="text_13">
    <g clip-path="url(#p6fc18c1653)">
     <!-- 793 -->
     <g transform="translate(249.345481 383.232283) scale(0.09 -0.09)">
      <use xlink:href="#DejaVuSans-Bold-37"/>
      <use xlink:href="#DejaVuSans-Bold-39" transform="translate(69.580078 0)"/>
      <use xlink:href="#DejaVuSans-Bold-33" transform="translate(139.160156 0)"/>
     </g>
    </g>
   </g>
   <g id="text_14">
    <g clip-path="url(#p6fc18c1653)">
     <!-- 802 -->
     <g transform="translate(285.794726 457.132438) scale(0.09 -0.09)">
      <use xlink:href="#DejaVuSans-Bold-38"/>
      <use xlink:href="#DejaVuSans-Bold-30" transform="translate(69.580078 0)"/>
      <use xlink:href="#DejaVuSans-Bold-32" transform="translate(139.160156 0)"/>
     </g>
    </g>
   </g>
   <g id="text_15">
    <g clip-path="url(#p6fc18c1653)">
     <!-- 784 -->
     <g transform="translate(668.750311 569.593176) scale(0.09 -0.09)">
      <use xlink:href="#DejaVuSans-Bold-37"/>
      <use xlink:href="#DejaVuSans-Bold-38" transform="translate(69.580078 0)"/>
      <use xlink:href="#DejaVuSans-Bold-34" transform="translate(139.160156 0)"/>
     </g>
    </g>
   </g>
   <g id="text_16">
    <g clip-path="url(#p6fc18c1653)">
     <!-- 785 -->
     <g transform="translate(724.069666 511.076215) scale(0.09 -0.09)">
      <use xlink:href="#DejaVuSans-Bold-37"/>
      <use xlink:href="#DejaVuSans-Bold-38" transform="translate(69.580078 0)"/>
      <use xlink:href="#DejaVuSans-Bold-35" transform="translate(139.160156 0)"/>
     </g>
    </g>
   </g>
   <g id="text_17">
    <g clip-path="url(#p6fc18c1653)">
     <!-- 789 -->
     <g transform="translate(758.844941 442.931523) scale(0.09 -0.09)">
      <use xlink:href="#DejaVuSans-Bold-37"/>
      <use xlink:href="#DejaVuSans-Bold-38" transform="translate(69.580078 0)"/>
      <use xlink:href="#DejaVuSans-Bold-39" transform="translate(139.160156 0)"/>
     </g>
    </g>
   </g>
   <g id="text_18">
    <g clip-path="url(#p6fc18c1653)">
     <!-- 1007 -->
     <g transform="translate(767.575111 369.803388) scale(0.09 -0.09)">
      <use xlink:href="#DejaVuSans-Bold-31"/>
      <use xlink:href="#DejaVuSans-Bold-30" transform="translate(69.580078 0)"/>
      <use xlink:href="#DejaVuSans-Bold-30" transform="translate(139.160156 0)"/>
      <use xlink:href="#DejaVuSans-Bold-37" transform="translate(208.740234 0)"/>
     </g>
    </g>
   </g>
   <g id="text_19">
    <g clip-path="url(#p6fc18c1653)">
     <!-- 799 -->
     <g transform="translate(365.68086 503.306261) scale(0.09 -0.09)">
      <use xlink:href="#DejaVuSans-Bold-37"/>
      <use xlink:href="#DejaVuSans-Bold-39" transform="translate(69.580078 0)"/>
      <use xlink:href="#DejaVuSans-Bold-39" transform="translate(139.160156 0)"/>
     </g>
    </g>
   </g>
   <g id="text_20">
    <g clip-path="url(#p6fc18c1653)">
     <!-- 796 -->
     <g transform="translate(463.6407 507.093912) scale(0.09 -0.09)">
      <use xlink:href="#DejaVuSans-Bold-37"/>
      <use xlink:href="#DejaVuSans-Bold-39" transform="translate(69.580078 0)"/>
      <use xlink:href="#DejaVuSans-Bold-36" transform="translate(139.160156 0)"/>
     </g>
    </g>
   </g>
   <g id="text_21">
    <g clip-path="url(#p6fc18c1653)">
     <!-- 798 -->
     <g transform="translate(548.572603 467.292752) scale(0.09 -0.09)">
      <use xlink:href="#DejaVuSans-Bold-37"/>
      <use xlink:href="#DejaVuSans-Bold-39" transform="translate(69.580078 0)"/>
      <use xlink:href="#DejaVuSans-Bold-38" transform="translate(139.160156 0)"/>
     </g>
    </g>
   </g>
   <g id="text_22">
    <g clip-path="url(#p6fc18c1653)">
     <!-- 801 -->
     <g transform="translate(758.844941 296.675257) scale(0.09 -0.09)">
      <use xlink:href="#DejaVuSans-Bold-38"/>
      <use xlink:href="#DejaVuSans-Bold-30" transform="translate(69.580078 0)"/>
      <use xlink:href="#DejaVuSans-Bold-31" transform="translate(139.160156 0)"/>
     </g>
    </g>
   </g>
   <g id="text_23">
    <g clip-path="url(#p6fc18c1653)">
     <!-- 806 -->
     <g transform="translate(724.069666 228.530698) scale(0.09 -0.09)">
      <use xlink:href="#DejaVuSans-Bold-38"/>
      <use xlink:href="#DejaVuSans-Bold-30" transform="translate(69.580078 0)"/>
      <use xlink:href="#DejaVuSans-Bold-36" transform="translate(139.160156 0)"/>
     </g>
    </g>
   </g>
   <g id="text_24">
    <g clip-path="url(#p6fc18c1653)">
     <!-- 842 -->
     <g transform="translate(593.511239 396.539466) scale(0.09 -0.09)">
      <use xlink:href="#DejaVuSans-Bold-38"/>
      <use xlink:href="#DejaVuSans-Bold-34" transform="translate(69.580078 0)"/>
      <use xlink:href="#DejaVuSans-Bold-32" transform="translate(139.160156 0)"/>
     </g>
    </g>
   </g>
   <g id="text_25">
    <g clip-path="url(#p6fc18c1653)">
     <!-- 805 -->
     <g transform="translate(668.750233 170.013636) scale(0.09 -0.09)">
      <use xlink:href="#DejaVuSans-Bold-38"/>
      <use xlink:href="#DejaVuSans-Bold-30" transform="translate(69.580078 0)"/>
      <use xlink:href="#DejaVuSans-Bold-35" transform="translate(139.160156 0)"/>
     </g>
    </g>
   </g>
   <g id="text_26">
    <g clip-path="url(#p6fc18c1653)">
     <!-- 835 -->
     <g transform="translate(596.6564 125.111832) scale(0.09 -0.09)">
      <use xlink:href="#DejaVuSans-Bold-38"/>
      <use xlink:href="#DejaVuSans-Bold-33" transform="translate(69.580078 0)"/>
      <use xlink:href="#DejaVuSans-Bold-35" transform="translate(139.160156 0)"/>
     </g>
    </g>
   </g>
   <g id="text_27">
    <g clip-path="url(#p6fc18c1653)">
     <!-- 836 -->
     <g transform="translate(512.701677 96.885481) scale(0.09 -0.09)">
      <use xlink:href="#DejaVuSans-Bold-38"/>
      <use xlink:href="#DejaVuSans-Bold-33" transform="translate(69.580078 0)"/>
      <use xlink:href="#DejaVuSans-Bold-36" transform="translate(139.160156 0)"/>
     </g>
    </g>
   </g>
   <g id="text_28">
    <g clip-path="url(#p6fc18c1653)">
     <!-- 840 -->
     <g transform="translate(422.606836 87.257983) scale(0.09 -0.09)">
      <use xlink:href="#DejaVuSans-Bold-38"/>
      <use xlink:href="#DejaVuSans-Bold-34" transform="translate(69.580078 0)"/>
      <use xlink:href="#DejaVuSans-Bold-30" transform="translate(139.160156 0)"/>
     </g>
    </g>
   </g>
   <g id="text_29">
    <g clip-path="url(#p6fc18c1653)">
     <!-- 844 -->
     <g transform="translate(332.512323 96.885481) scale(0.09 -0.09)">
      <use xlink:href="#DejaVuSans-Bold-38"/>
      <use xlink:href="#DejaVuSans-Bold-34" transform="translate(69.580078 0)"/>
      <use xlink:href="#DejaVuSans-Bold-34" transform="translate(139.160156 0)"/>
     </g>
    </g>
   </g>
   <g id="text_30">
    <g clip-path="url(#p6fc18c1653)">
     <!-- 848 -->
     <g transform="translate(584.18901 317.297685) scale(0.09 -0.09)">
      <use xlink:href="#DejaVuSans-Bold-38"/>
      <use xlink:href="#DejaVuSans-Bold-34" transform="translate(69.580078 0)"/>
      <use xlink:href="#DejaVuSans-Bold-38" transform="translate(139.160156 0)"/>
     </g>
    </g>
   </g>
   <g id="text_31">
    <g clip-path="url(#p6fc18c1653)">
     <!-- 994 -->
     <g transform="translate(248.557289 125.111933) scale(0.09 -0.09)">
      <use xlink:href="#DejaVuSans-Bold-39"/>
      <use xlink:href="#DejaVuSans-Bold-39" transform="translate(69.580078 0)"/>
      <use xlink:href="#DejaVuSans-Bold-34" transform="translate(139.160156 0)"/>
     </g>
    </g>
   </g>
   <g id="text_32">
    <g clip-path="url(#p6fc18c1653)">
     <!-- 851 -->
     <g transform="translate(523.565597 254.726059) scale(0.09 -0.09)">
      <use xlink:href="#DejaVuSans-Bold-38"/>
      <use xlink:href="#DejaVuSans-Bold-35" transform="translate(69.580078 0)"/>
      <use xlink:href="#DejaVuSans-Bold-31" transform="translate(139.160156 0)"/>
     </g>
    </g>
   </g>
   <g id="text_33">
    <g clip-path="url(#p6fc18c1653)">
     <!-- 991 -->
     <g transform="translate(176.463736 170.013573) scale(0.09 -0.09)">
      <use xlink:href="#DejaVuSans-Bold-39"/>
      <use xlink:href="#DejaVuSans-Bold-39" transform="translate(69.580078 0)"/>
      <use xlink:href="#DejaVuSans-Bold-31" transform="translate(139.160156 0)"/>
     </g>
    </g>
   </g>
   <g id="text_34">
    <g clip-path="url(#p6fc18c1653)">
     <!-- 855 -->
     <g transform="translate(121.144209 228.530735) scale(0.09 -0.09)">
      <use xlink:href="#DejaVuSans-Bold-38"/>
      <use xlink:href="#DejaVuSans-Bold-35" transform="translate(69.580078 0)"/>
      <use xlink:href="#DejaVuSans-Bold-35" transform="translate(139.160156 0)"/>
     </g>
    </g>
   </g>
   <g id="text_35">
    <g clip-path="url(#p6fc18c1653)">
     <!-- 990 -->
     <g transform="translate(430.888573 228.690729) scale(0.09 -0.09)">
      <use xlink:href="#DejaVuSans-Bold-39"/>
      <use xlink:href="#DejaVuSans-Bold-39" transform="translate(69.580078 0)"/>
      <use xlink:href="#DejaVuSans-Bold-30" transform="translate(139.160156 0)"/>
     </g>
    </g>
   </g>
   <g id="text_36">
    <g clip-path="url(#p6fc18c1653)">
     <!-- 862 -->
     <g transform="translate(86.368903 296.675447) scale(0.09 -0.09)">
      <use xlink:href="#DejaVuSans-Bold-38"/>
      <use xlink:href="#DejaVuSans-Bold-36" transform="translate(69.580078 0)"/>
      <use xlink:href="#DejaVuSans-Bold-32" transform="translate(139.160156 0)"/>
     </g>
    </g>
   </g>
   <g id="text_37">
    <!-- H-bond Network (APO vs Icilin_Ca) -->
    <g transform="translate(329.009063 19.44) scale(0.12 -0.12)">
     <defs>
      <path id="DejaVuSans-48" d="M 628 4666 
L 1259 4666 
L 1259 2753 
L 3553 2753 
L 3553 4666 
L 4184 4666 
L 4184 0 
L 3553 0 
L 3553 2222 
L 1259 2222 
L 1259 0 
L 628 0 
L 628 4666 
z
" transform="scale(0.015625)"/>
      <path id="DejaVuSans-2d" d="M 313 2009 
L 1997 2009 
L 1997 1497 
L 313 1497 
L 313 2009 
z
" transform="scale(0.015625)"/>
      <path id="DejaVuSans-62" d="M 3116 1747 
Q 3116 2381 2855 2742 
Q 2594 3103 2138 3103 
Q 1681 3103 1420 2742 
Q 1159 2381 1159 1747 
Q 1159 1113 1420 752 
Q 1681 391 2138 391 
Q 2594 391 2855 752 
Q 3116 1113 3116 1747 
z
M 1159 2969 
Q 1341 3281 1617 3432 
Q 1894 3584 2278 3584 
Q 2916 3584 3314 3078 
Q 3713 2572 3713 1747 
Q 3713 922 3314 415 
Q 2916 -91 2278 -91 
Q 1894 -91 1617 61 
Q 1341 213 1159 525 
L 1159 0 
L 581 0 
L 581 4863 
L 1159 4863 
L 1159 2969 
z
" transform="scale(0.015625)"/>
      <path id="DejaVuSans-6f" d="M 1959 3097 
Q 1497 3097 1228 2736 
Q 959 2375 959 1747 
Q 959 1119 1226 758 
Q 1494 397 1959 397 
Q 2419 397 2687 759 
Q 2956 1122 2956 1747 
Q 2956 2369 2687 2733 
Q 2419 3097 1959 3097 
z
M 1959 3584 
Q 2709 3584 3137 3096 
Q 3566 2609 3566 1747 
Q 3566 888 3137 398 
Q 2709 -91 1959 -91 
Q 1206 -91 779 398 
Q 353 888 353 1747 
Q 353 2609 779 3096 
Q 1206 3584 1959 3584 
z
" transform="scale(0.015625)"/>
      <path id="DejaVuSans-6e" d="M 3513 2113 
L 3513 0 
L 2938 0 
L 2938 2094 
Q 2938 2591 2744 2837 
Q 2550 3084 2163 3084 
Q 1697 3084 1428 2787 
Q 1159 2491 1159 1978 
L 1159 0 
L 581 0 
L 581 3500 
L 1159 3500 
L 1159 2956 
Q 1366 3272 1645 3428 
Q 1925 3584 2291 3584 
Q 2894 3584 3203 3211 
Q 3513 2838 3513 2113 
z
" transform="scale(0.015625)"/>
      <path id="DejaVuSans-64" d="M 2906 2969 
L 2906 4863 
L 3481 4863 
L 3481 0 
L 2906 0 
L 2906 525 
Q 2725 213 2448 61 
Q 2172 -91 1784 -91 
Q 1150 -91 751 415 
Q 353 922 353 1747 
Q 353 2572 751 3078 
Q 1150 3584 1784 3584 
Q 2172 3584 2448 3432 
Q 2725 3281 2906 2969 
z
M 947 1747 
Q 947 1113 1208 752 
Q 1469 391 1925 391 
Q 2381 391 2643 752 
Q 2906 1113 2906 1747 
Q 2906 2381 2643 2742 
Q 2381 3103 1925 3103 
Q 1469 3103 1208 2742 
Q 947 2381 947 1747 
z
" transform="scale(0.015625)"/>
      <path id="DejaVuSans-20" transform="scale(0.015625)"/>
      <path id="DejaVuSans-4e" d="M 628 4666 
L 1478 4666 
L 3547 763 
L 3547 4666 
L 4159 4666 
L 4159 0 
L 3309 0 
L 1241 3903 
L 1241 0 
L 628 0 
L 628 4666 
z
" transform="scale(0.015625)"/>
      <path id="DejaVuSans-65" d="M 3597 1894 
L 3597 1613 
L 953 1613 
Q 991 1019 1311 708 
Q 1631 397 2203 397 
Q 2534 397 2845 478 
Q 3156 559 3463 722 
L 3463 178 
Q 3153 47 2828 -22 
Q 2503 -91 2169 -91 
Q 1331 -91 842 396 
Q 353 884 353 1716 
Q 353 2575 817 3079 
Q 1281 3584 2069 3584 
Q 2775 3584 3186 3129 
Q 3597 2675 3597 1894 
z
M 3022 2063 
Q 3016 2534 2758 2815 
Q 2500 3097 2075 3097 
Q 1594 3097 1305 2825 
Q 1016 2553 972 2059 
L 3022 2063 
z
" transform="scale(0.015625)"/>
      <path id="DejaVuSans-74" d="M 1172 4494 
L 1172 3500 
L 2356 3500 
L 2356 3053 
L 1172 3053 
L 1172 1153 
Q 1172 725 1289 603 
Q 1406 481 1766 481 
L 2356 481 
L 2356 0 
L 1766 0 
Q 1100 0 847 248 
Q 594 497 594 1153 
L 594 3053 
L 172 3053 
L 172 3500 
L 594 3500 
L 594 4494 
L 1172 4494 
z
" transform="scale(0.015625)"/>
      <path id="DejaVuSans-77" d="M 269 3500 
L 844 3500 
L 1563 769 
L 2278 3500 
L 2956 3500 
L 3675 769 
L 4391 3500 
L 4966 3500 
L 4050 0 
L 3372 0 
L 2619 2869 
L 1863 0 
L 1184 0 
L 269 3500 
z
" transform="scale(0.015625)"/>
      <path id="DejaVuSans-72" d="M 2631 2963 
Q 2534 3019 2420 3045 
Q 2306 3072 2169 3072 
Q 1681 3072 1420 2755 
Q 1159 2438 1159 1844 
L 1159 0 
L 581 0 
L 581 3500 
L 1159 3500 
L 1159 2956 
Q 1341 3275 1631 3429 
Q 1922 3584 2338 3584 
Q 2397 3584 2469 3576 
Q 2541 3569 2628 3553 
L 2631 2963 
z
" transform="scale(0.015625)"/>
      <path id="DejaVuSans-6b" d="M 581 4863 
L 1159 4863 
L 1159 1991 
L 2875 3500 
L 3609 3500 
L 1753 1863 
L 3688 0 
L 2938 0 
L 1159 1709 
L 1159 0 
L 581 0 
L 581 4863 
z
" transform="scale(0.015625)"/>
      <path id="DejaVuSans-28" d="M 1984 4856 
Q 1566 4138 1362 3434 
Q 1159 2731 1159 2009 
Q 1159 1288 1364 580 
Q 1569 -128 1984 -844 
L 1484 -844 
Q 1016 -109 783 600 
Q 550 1309 550 2009 
Q 550 2706 781 3412 
Q 1013 4119 1484 4856 
L 1984 4856 
z
" transform="scale(0.015625)"/>
      <path id="DejaVuSans-41" d="M 2188 4044 
L 1331 1722 
L 3047 1722 
L 2188 4044 
z
M 1831 4666 
L 2547 4666 
L 4325 0 
L 3669 0 
L 3244 1197 
L 1141 1197 
L 716 0 
L 50 0 
L 1831 4666 
z
" transform="scale(0.015625)"/>
      <path id="DejaVuSans-50" d="M 1259 4147 
L 1259 2394 
L 2053 2394 
Q 2494 2394 2734 2622 
Q 2975 2850 2975 3272 
Q 2975 3691 2734 3919 
Q 2494 4147 2053 4147 
L 1259 4147 
z
M 628 4666 
L 2053 4666 
Q 2838 4666 3239 4311 
Q 3641 3956 3641 3272 
Q 3641 2581 3239 2228 
Q 2838 1875 2053 1875 
L 1259 1875 
L 1259 0 
L 628 0 
L 628 4666 
z
" transform="scale(0.015625)"/>
      <path id="DejaVuSans-4f" d="M 2522 4238 
Q 1834 4238 1429 3725 
Q 1025 3213 1025 2328 
Q 1025 1447 1429 934 
Q 1834 422 2522 422 
Q 3209 422 3611 934 
Q 4013 1447 4013 2328 
Q 4013 3213 3611 3725 
Q 3209 4238 2522 4238 
z
M 2522 4750 
Q 3503 4750 4090 4092 
Q 4678 3434 4678 2328 
Q 4678 1225 4090 567 
Q 3503 -91 2522 -91 
Q 1538 -91 948 565 
Q 359 1222 359 2328 
Q 359 3434 948 4092 
Q 1538 4750 2522 4750 
z
" transform="scale(0.015625)"/>
      <path id="DejaVuSans-76" d="M 191 3500 
L 800 3500 
L 1894 563 
L 2988 3500 
L 3597 3500 
L 2284 0 
L 1503 0 
L 191 3500 
z
" transform="scale(0.015625)"/>
      <path id="DejaVuSans-73" d="M 2834 3397 
L 2834 2853 
Q 2591 2978 2328 3040 
Q 2066 3103 1784 3103 
Q 1356 3103 1142 2972 
Q 928 2841 928 2578 
Q 928 2378 1081 2264 
Q 1234 2150 1697 2047 
L 1894 2003 
Q 2506 1872 2764 1633 
Q 3022 1394 3022 966 
Q 3022 478 2636 193 
Q 2250 -91 1575 -91 
Q 1294 -91 989 -36 
Q 684 19 347 128 
L 347 722 
Q 666 556 975 473 
Q 1284 391 1588 391 
Q 1994 391 2212 530 
Q 2431 669 2431 922 
Q 2431 1156 2273 1281 
Q 2116 1406 1581 1522 
L 1381 1569 
Q 847 1681 609 1914 
Q 372 2147 372 2553 
Q 372 3047 722 3315 
Q 1072 3584 1716 3584 
Q 2034 3584 2315 3537 
Q 2597 3491 2834 3397 
z
" transform="scale(0.015625)"/>
      <path id="DejaVuSans-49" d="M 628 4666 
L 1259 4666 
L 1259 0 
L 628 0 
L 628 4666 
z
" transform="scale(0.015625)"/>
      <path id="DejaVuSans-63" d="M 3122 3366 
L 3122 2828 
Q 2878 2963 2633 3030 
Q 2388 3097 2138 3097 
Q 1578 3097 1268 2742 
Q 959 2388 959 1747 
Q 959 1106 1268 751 
Q 1578 397 2138 397 
Q 2388 397 2633 464 
Q 2878 531 3122 666 
L 3122 134 
Q 2881 22 2623 -34 
Q 2366 -91 2075 -91 
Q 1284 -91 818 406 
Q 353 903 353 1747 
Q 353 2603 823 3093 
Q 1294 3584 2113 3584 
Q 2378 3584 2631 3529 
Q 2884 3475 3122 3366 
z
" transform="scale(0.015625)"/>
      <path id="DejaVuSans-69" d="M 603 3500 
L 1178 3500 
L 1178 0 
L 603 0 
L 603 3500 
z
M 603 4863 
L 1178 4863 
L 1178 4134 
L 603 4134 
L 603 4863 
z
" transform="scale(0.015625)"/>
      <path id="DejaVuSans-6c" d="M 603 4863 
L 1178 4863 
L 1178 0 
L 603 0 
L 603 4863 
z
" transform="scale(0.015625)"/>
      <path id="DejaVuSans-5f" d="M 3263 -1063 
L 3263 -1509 
L -63 -1509 
L -63 -1063 
L 3263 -1063 
z
" transform="scale(0.015625)"/>
      <path id="DejaVuSans-43" d="M 4122 4306 
L 4122 3641 
Q 3803 3938 3442 4084 
Q 3081 4231 2675 4231 
Q 1875 4231 1450 3742 
Q 1025 3253 1025 2328 
Q 1025 1406 1450 917 
Q 1875 428 2675 428 
Q 3081 428 3442 575 
Q 3803 722 4122 1019 
L 4122 359 
Q 3791 134 3420 21 
Q 3050 -91 2638 -91 
Q 1578 -91 968 557 
Q 359 1206 359 2328 
Q 359 3453 968 4101 
Q 1578 4750 2638 4750 
Q 3056 4750 3426 4639 
Q 3797 4528 4122 4306 
z
" transform="scale(0.015625)"/>
      <path id="DejaVuSans-61" d="M 2194 1759 
Q 1497 1759 1228 1600 
Q 959 1441 959 1056 
Q 959 750 1161 570 
Q 1363 391 1709 391 
Q 2188 391 2477 730 
Q 2766 1069 2766 1631 
L 2766 1759 
L 2194 1759 
z
M 3341 1997 
L 3341 0 
L 2766 0 
L 2766 531 
Q 2569 213 2275 61 
Q 1981 -91 1556 -91 
Q 1019 -91 701 211 
Q 384 513 384 1019 
Q 384 1609 779 1909 
Q 1175 2209 1959 2209 
L 2766 2209 
L 2766 2266 
Q 2766 2663 2505 2880 
Q 2244 3097 1772 3097 
Q 1472 3097 1187 3025 
Q 903 2953 641 2809 
L 641 3341 
Q 956 3463 1253 3523 
Q 1550 3584 1831 3584 
Q 2591 3584 2966 3190 
Q 3341 2797 3341 1997 
z
" transform="scale(0.015625)"/>
      <path id="DejaVuSans-29" d="M 513 4856 
L 1013 4856 
Q 1481 4119 1714 3412 
Q 1947 2706 1947 2009 
Q 1947 1309 1714 600 
Q 1481 -109 1013 -844 
L 513 -844 
Q 928 -128 1133 580 
Q 1338 1288 1338 2009 
Q 1338 2731 1133 3434 
Q 928 4138 513 4856 
z
" transform="scale(0.015625)"/>
     </defs>
     <use xlink:href="#DejaVuSans-48"/>
     <use xlink:href="#DejaVuSans-2d" transform="translate(75.195312 0)"/>
     <use xlink:href="#DejaVuSans-62" transform="translate(111.279297 0)"/>
     <use xlink:href="#DejaVuSans-6f" transform="translate(174.755859 0)"/>
     <use xlink:href="#DejaVuSans-6e" transform="translate(235.9375 0)"/>
     <use xlink:href="#DejaVuSans-64" transform="translate(299.316406 0)"/>
     <use xlink:href="#DejaVuSans-20" transform="translate(362.792969 0)"/>
     <use xlink:href="#DejaVuSans-4e" transform="translate(394.580078 0)"/>
     <use xlink:href="#DejaVuSans-65" transform="translate(469.384766 0)"/>
     <use xlink:href="#DejaVuSans-74" transform="translate(530.908203 0)"/>
     <use xlink:href="#DejaVuSans-77" transform="translate(570.117188 0)"/>
     <use xlink:href="#DejaVuSans-6f" transform="translate(651.904297 0)"/>
     <use xlink:href="#DejaVuSans-72" transform="translate(713.085938 0)"/>
     <use xlink:href="#DejaVuSans-6b" transform="translate(754.199219 0)"/>
     <use xlink:href="#DejaVuSans-20" transform="translate(812.109375 0)"/>
     <use xlink:href="#DejaVuSans-28" transform="translate(843.896484 0)"/>
     <use xlink:href="#DejaVuSans-41" transform="translate(882.910156 0)"/>
     <use xlink:href="#DejaVuSans-50" transform="translate(951.318359 0)"/>
     <use xlink:href="#DejaVuSans-4f" transform="translate(1011.621094 0)"/>
     <use xlink:href="#DejaVuSans-20" transform="translate(1090.332031 0)"/>
     <use xlink:href="#DejaVuSans-76" transform="translate(1122.119141 0)"/>
     <use xlink:href="#DejaVuSans-73" transform="translate(1181.298828 0)"/>
     <use xlink:href="#DejaVuSans-20" transform="translate(1233.398438 0)"/>
     <use xlink:href="#DejaVuSans-49" transform="translate(1265.185547 0)"/>
     <use xlink:href="#DejaVuSans-63" transform="translate(1294.677734 0)"/>
     <use xlink:href="#DejaVuSans-69" transform="translate(1349.658203 0)"/>
     <use xlink:href="#DejaVuSans-6c" transform="translate(1377.441406 0)"/>
     <use xlink:href="#DejaVuSans-69" transform="translate(1405.224609 0)"/>
     <use xlink:href="#DejaVuSans-6e" transform="translate(1433.007812 0)"/>
     <use xlink:href="#DejaVuSans-5f" transform="translate(1496.386719 0)"/>
     <use xlink:href="#DejaVuSans-43" transform="translate(1546.386719 0)"/>
     <use xlink:href="#DejaVuSans-61" transform="translate(1616.210938 0)"/>
     <use xlink:href="#DejaVuSans-29" transform="translate(1677.490234 0)"/>
    </g>
   </g>
   <g id="legend_1">
    <g id="patch_3">
     <path d="M 17.8 92.1525 
L 107.942188 92.1525 
Q 109.942188 92.1525 109.942188 90.1525 
L 109.942188 32.44 
Q 109.942188 30.44 107.942188 30.44 
L 17.8 30.44 
Q 15.8 30.44 15.8 32.44 
L 15.8 90.1525 
Q 15.8 92.1525 17.8 92.1525 
z
" style="fill: #ffffff; opacity: 0.8; stroke: #cccccc; stroke-linejoin: miter"/>
    </g>
    <g id="line2d_5">
     <path d="M 19.8 38.538437 
L 29.8 38.538437 
L 39.8 38.538437 
" style="fill: none; stroke-dasharray: 11.1,4.8; stroke-dashoffset: 0; stroke: #008000; stroke-width: 3"/>
    </g>
    <g id="text_38">
     <!-- Gained -->
     <g transform="translate(47.8 42.038437) scale(0.1 -0.1)">
      <defs>
       <path id="DejaVuSans-47" d="M 3809 666 
L 3809 1919 
L 2778 1919 
L 2778 2438 
L 4434 2438 
L 4434 434 
Q 4069 175 3628 42 
Q 3188 -91 2688 -91 
Q 1594 -91 976 548 
Q 359 1188 359 2328 
Q 359 3472 976 4111 
Q 1594 4750 2688 4750 
Q 3144 4750 3555 4637 
Q 3966 4525 4313 4306 
L 4313 3634 
Q 3963 3931 3569 4081 
Q 3175 4231 2741 4231 
Q 1884 4231 1454 3753 
Q 1025 3275 1025 2328 
Q 1025 1384 1454 906 
Q 1884 428 2741 428 
Q 3075 428 3337 486 
Q 3600 544 3809 666 
z
" transform="scale(0.015625)"/>
      </defs>
      <use xlink:href="#DejaVuSans-47"/>
      <use xlink:href="#DejaVuSans-61" transform="translate(77.490234 0)"/>
      <use xlink:href="#DejaVuSans-69" transform="translate(138.769531 0)"/>
      <use xlink:href="#DejaVuSans-6e" transform="translate(166.552734 0)"/>
      <use xlink:href="#DejaVuSans-65" transform="translate(229.931641 0)"/>
      <use xlink:href="#DejaVuSans-64" transform="translate(291.455078 0)"/>
     </g>
    </g>
    <g id="line2d_6">
     <path d="M 19.8 53.216562 
L 29.8 53.216562 
L 39.8 53.216562 
" style="fill: none; stroke-dasharray: 11.1,4.8; stroke-dashoffset: 0; stroke: #ff0000; stroke-width: 3"/>
    </g>
    <g id="text_39">
     <!-- Disrupted -->
     <g transform="translate(47.8 56.716562) scale(0.1 -0.1)">
      <defs>
       <path id="DejaVuSans-44" d="M 1259 4147 
L 1259 519 
L 2022 519 
Q 2988 519 3436 956 
Q 3884 1394 3884 2338 
Q 3884 3275 3436 3711 
Q 2988 4147 2022 4147 
L 1259 4147 
z
M 628 4666 
L 1925 4666 
Q 3281 4666 3915 4102 
Q 4550 3538 4550 2338 
Q 4550 1131 3912 565 
Q 3275 0 1925 0 
L 628 0 
L 628 4666 
z
" transform="scale(0.015625)"/>
       <path id="DejaVuSans-75" d="M 544 1381 
L 544 3500 
L 1119 3500 
L 1119 1403 
Q 1119 906 1312 657 
Q 1506 409 1894 409 
Q 2359 409 2629 706 
Q 2900 1003 2900 1516 
L 2900 3500 
L 3475 3500 
L 3475 0 
L 2900 0 
L 2900 538 
Q 2691 219 2414 64 
Q 2138 -91 1772 -91 
Q 1169 -91 856 284 
Q 544 659 544 1381 
z
M 1991 3584 
L 1991 3584 
z
" transform="scale(0.015625)"/>
       <path id="DejaVuSans-70" d="M 1159 525 
L 1159 -1331 
L 581 -1331 
L 581 3500 
L 1159 3500 
L 1159 2969 
Q 1341 3281 1617 3432 
Q 1894 3584 2278 3584 
Q 2916 3584 3314 3078 
Q 3713 2572 3713 1747 
Q 3713 922 3314 415 
Q 2916 -91 2278 -91 
Q 1894 -91 1617 61 
Q 1341 213 1159 525 
z
M 3116 1747 
Q 3116 2381 2855 2742 
Q 2594 3103 2138 3103 
Q 1681 3103 1420 2742 
Q 1159 2381 1159 1747 
Q 1159 1113 1420 752 
Q 1681 391 2138 391 
Q 2594 391 2855 752 
Q 3116 1113 3116 1747 
z
" transform="scale(0.015625)"/>
      </defs>
      <use xlink:href="#DejaVuSans-44"/>
      <use xlink:href="#DejaVuSans-69" transform="translate(77.001953 0)"/>
      <use xlink:href="#DejaVuSans-73" transform="translate(104.785156 0)"/>
      <use xlink:href="#DejaVuSans-72" transform="translate(156.884766 0)"/>
      <use xlink:href="#DejaVuSans-75" transform="translate(197.998047 0)"/>
      <use xlink:href="#DejaVuSans-70" transform="translate(261.376953 0)"/>
      <use xlink:href="#DejaVuSans-74" transform="translate(324.853516 0)"/>
      <use xlink:href="#DejaVuSans-65" transform="translate(364.0625 0)"/>
      <use xlink:href="#DejaVuSans-64" transform="translate(425.585938 0)"/>
     </g>
    </g>
    <g id="line2d_7">
     <path d="M 19.8 67.894687 
L 29.8 67.894687 
L 39.8 67.894687 
" style="fill: none; stroke: #ffa500; stroke-width: 3; stroke-linecap: square"/>
    </g>
    <g id="text_40">
     <!-- Rearranged -->
     <g transform="translate(47.8 71.394687) scale(0.1 -0.1)">
      <defs>
       <path id="DejaVuSans-52" d="M 2841 2188 
Q 3044 2119 3236 1894 
Q 3428 1669 3622 1275 
L 4263 0 
L 3584 0 
L 2988 1197 
Q 2756 1666 2539 1819 
Q 2322 1972 1947 1972 
L 1259 1972 
L 1259 0 
L 628 0 
L 628 4666 
L 2053 4666 
Q 2853 4666 3247 4331 
Q 3641 3997 3641 3322 
Q 3641 2881 3436 2590 
Q 3231 2300 2841 2188 
z
M 1259 4147 
L 1259 2491 
L 2053 2491 
Q 2509 2491 2742 2702 
Q 2975 2913 2975 3322 
Q 2975 3731 2742 3939 
Q 2509 4147 2053 4147 
L 1259 4147 
z
" transform="scale(0.015625)"/>
       <path id="DejaVuSans-67" d="M 2906 1791 
Q 2906 2416 2648 2759 
Q 2391 3103 1925 3103 
Q 1463 3103 1205 2759 
Q 947 2416 947 1791 
Q 947 1169 1205 825 
Q 1463 481 1925 481 
Q 2391 481 2648 825 
Q 2906 1169 2906 1791 
z
M 3481 434 
Q 3481 -459 3084 -895 
Q 2688 -1331 1869 -1331 
Q 1566 -1331 1297 -1286 
Q 1028 -1241 775 -1147 
L 775 -588 
Q 1028 -725 1275 -790 
Q 1522 -856 1778 -856 
Q 2344 -856 2625 -561 
Q 2906 -266 2906 331 
L 2906 616 
Q 2728 306 2450 153 
Q 2172 0 1784 0 
Q 1141 0 747 490 
Q 353 981 353 1791 
Q 353 2603 747 3093 
Q 1141 3584 1784 3584 
Q 2172 3584 2450 3431 
Q 2728 3278 2906 2969 
L 2906 3500 
L 3481 3500 
L 3481 434 
z
" transform="scale(0.015625)"/>
      </defs>
      <use xlink:href="#DejaVuSans-52"/>
      <use xlink:href="#DejaVuSans-65" transform="translate(64.982422 0)"/>
      <use xlink:href="#DejaVuSans-61" transform="translate(126.505859 0)"/>
      <use xlink:href="#DejaVuSans-72" transform="translate(187.785156 0)"/>
      <use xlink:href="#DejaVuSans-72" transform="translate(227.148438 0)"/>
      <use xlink:href="#DejaVuSans-61" transform="translate(268.261719 0)"/>
      <use xlink:href="#DejaVuSans-6e" transform="translate(329.541016 0)"/>
      <use xlink:href="#DejaVuSans-67" transform="translate(392.919922 0)"/>
      <use xlink:href="#DejaVuSans-65" transform="translate(456.396484 0)"/>
      <use xlink:href="#DejaVuSans-64" transform="translate(517.919922 0)"/>
     </g>
    </g>
    <g id="line2d_8">
     <path d="M 19.8 82.572812 
L 29.8 82.572812 
L 39.8 82.572812 
" style="fill: none; stroke: #808080; stroke-width: 3; stroke-linecap: square"/>
    </g>
    <g id="text_41">
     <!-- Maintained -->
     <g transform="translate(47.8 86.072812) scale(0.1 -0.1)">
      <defs>
       <path id="DejaVuSans-4d" d="M 628 4666 
L 1569 4666 
L 2759 1491 
L 3956 4666 
L 4897 4666 
L 4897 0 
L 4281 0 
L 4281 4097 
L 3078 897 
L 2444 897 
L 1241 4097 
L 1241 0 
L 628 0 
L 628 4666 
z
" transform="scale(0.015625)"/>
      </defs>
      <use xlink:href="#DejaVuSans-4d"/>
      <use xlink:href="#DejaVuSans-61" transform="translate(86.279297 0)"/>
      <use xlink:href="#DejaVuSans-69" transform="translate(147.558594 0)"/>
      <use xlink:href="#DejaVuSans-6e" transform="translate(175.341797 0)"/>
      <use xlink:href="#DejaVuSans-74" transform="translate(238.720703 0)"/>
      <use xlink:href="#DejaVuSans-61" transform="translate(277.929688 0)"/>
      <use xlink:href="#DejaVuSans-69" transform="translate(339.208984 0)"/>
      <use xlink:href="#DejaVuSans-6e" transform="translate(366.992188 0)"/>
      <use xlink:href="#DejaVuSans-65" transform="translate(430.371094 0)"/>
      <use xlink:href="#DejaVuSans-64" transform="translate(491.894531 0)"/>
     </g>
    </g>
   </g>
  </g>
 </g>
 <defs>
  <clipPath id="p6fc18c1653">
   <rect x="10.8" y="25.44" width="842.4" height="683.76"/>
  </clipPath>
 </defs>
</svg>
